<svg xmlns="http://www.w3.org/2000/svg" viewBox="0 0 64 64">
  <rect width="64" height="64" rx="14" fill="#151826"/>
  <g fill="none" stroke="#4fc3f7" stroke-linecap="round" stroke-linejoin="round" stroke-width="5">
    <path d="M32 27c-8-8-8-17 0-24 8 7 8 16 0 24Z" fill="#4fc3f7"/>
    <path d="M30 30C18 28 12 21 14 11c10 1 16 8 16 19Z" fill="#4fc3f7"/>
    <path d="M34 30c12-2 18-9 16-19-10 1-16 8-16 19Z" fill="#4fc3f7"/>
    <path d="M32 35c-9 7-18 7-26 0 8-7 17-7 26 0Z" fill="#4fc3f7"/>
    <path d="M32 35c9 7 18 7 26 0-8-7-17-7-26 0Z" fill="#4fc3f7"/>
    <path d="M32 35v18"/>
  </g>
</svg>
